<svg width="62" height="57" viewBox="0 0 62 57" fill="none" xmlns="http://www.w3.org/2000/svg">
<path d="M52.0195 20.5234C52.0195 19.8331 51.4598 19.2734 50.7695 19.2734C50.0791 19.2734 49.5195 19.8331 49.5195 20.5234H52.0195ZM23.4689 29.8374C22.7786 29.8374 22.2189 30.3971 22.2189 31.0874C22.2189 31.7778 22.7786 32.3374 23.4689 32.3374V29.8374ZM37.8376 32.3374C38.528 32.3374 39.0876 31.7778 39.0876 31.0874C39.0876 30.3971 38.528 29.8374 37.8376 29.8374V32.3374ZM49.5195 20.5234V40.0008H52.0195V20.5234H49.5195ZM43.1062 45.6834H18.2004V48.1834H43.1062V45.6834ZM11.7871 40.0008V20.5234H9.28707V40.0008H11.7871ZM18.2004 45.6834C14.5376 45.6834 11.7871 43.0243 11.7871 40.0008H9.28707C9.28707 44.6348 13.3985 48.1834 18.2004 48.1834V45.6834ZM49.5195 40.0008C49.5195 43.0243 46.7689 45.6834 43.1062 45.6834V48.1834C47.9081 48.1834 52.0195 44.6348 52.0195 40.0008H49.5195ZM54.8932 17.0571V13.4258H52.3932V17.0571H54.8932ZM49.8116 8.70947H11.495V11.2095H49.8116V8.70947ZM6.41333 13.4258V17.0571H8.91333V13.4258H6.41333ZM49.8116 19.2734H11.495V21.7734H49.8116V19.2734ZM11.495 8.70947C8.80926 8.70947 6.41333 10.7061 6.41333 13.4258H8.91333C8.91333 12.3166 9.94838 11.2095 11.495 11.2095V8.70947ZM54.8932 13.4258C54.8932 10.7061 52.4973 8.70947 49.8116 8.70947V11.2095C51.3582 11.2095 52.3932 12.3166 52.3932 13.4258H54.8932ZM52.3932 17.0571C52.3932 18.1663 51.3582 19.2734 49.8116 19.2734V21.7734C52.4973 21.7734 54.8932 19.7768 54.8932 17.0571H52.3932ZM6.41333 17.0571C6.41333 19.7768 8.80926 21.7734 11.495 21.7734V19.2734C9.94838 19.2734 8.91333 18.1663 8.91333 17.0571H6.41333ZM23.4689 32.3374H37.8376V29.8374H23.4689V32.3374Z" fill="white" fill-opacity="0.9"/>
</svg>
