<svg width="62" height="58" viewBox="0 0 62 58" fill="none" xmlns="http://www.w3.org/2000/svg">
<path d="M52.0195 20.6232C52.0195 19.9329 51.4598 19.3732 50.7695 19.3732C50.0791 19.3732 49.5195 19.9329 49.5195 20.6232H52.0195ZM23.4689 30.3724C22.7786 30.3724 22.2189 30.932 22.2189 31.6224C22.2189 32.3128 22.7786 32.8724 23.4689 32.8724V30.3724ZM37.8376 32.8724C38.528 32.8724 39.0876 32.3128 39.0876 31.6224C39.0876 30.932 38.528 30.3724 37.8376 30.3724V32.8724ZM49.5195 20.6232V40.903H52.0195V20.6232H49.5195ZM43.1062 46.8712H18.2004V49.3712H43.1062V46.8712ZM11.7871 40.903V20.6232H9.28707V40.903H11.7871ZM18.2004 46.8712C14.5869 46.8712 11.7871 44.1297 11.7871 40.903H9.28707C9.28707 45.6493 13.3492 49.3712 18.2004 49.3712V46.8712ZM49.5195 40.903C49.5195 44.1297 46.7197 46.8712 43.1062 46.8712V49.3712C47.9573 49.3712 52.0195 45.6492 52.0195 40.903H49.5195ZM54.8932 17.0141V13.2331H52.3932V17.0141H54.8932ZM49.8116 8.37402H11.495V10.874H49.8116V8.37402ZM6.41333 13.2331V17.0141H8.91333V13.2331H6.41333ZM49.8116 19.3732H11.495V21.8732H49.8116V19.3732ZM11.495 8.37402C8.75998 8.37402 6.41333 10.4801 6.41333 13.2331H8.91333C8.91333 11.9996 9.99766 10.874 11.495 10.874V8.37402ZM54.8932 13.2331C54.8932 10.4801 52.5466 8.37402 49.8116 8.37402V10.874C51.3089 10.874 52.3932 11.9996 52.3932 13.2331H54.8932ZM52.3932 17.0141C52.3932 18.2476 51.3089 19.3732 49.8116 19.3732V21.8732C52.5466 21.8732 54.8932 19.7671 54.8932 17.0141H52.3932ZM6.41333 17.0141C6.41333 19.7671 8.75998 21.8732 11.495 21.8732V19.3732C9.99766 19.3732 8.91333 18.2476 8.91333 17.0141H6.41333ZM23.4689 32.8724H37.8376V30.3724H23.4689V32.8724Z" fill="white" fill-opacity="0.9"/>
</svg>
