<svg width="17" height="17" viewBox="0 0 17 17" fill="none" xmlns="http://www.w3.org/2000/svg">
<g clip-path="url(#clip0_637_5086)">
<path d="M14.875 1.0625C15.1568 1.0625 15.427 1.17444 15.6263 1.3737C15.8256 1.57296 15.9375 1.84321 15.9375 2.125V14.875C15.9375 15.1568 15.8256 15.427 15.6263 15.6263C15.427 15.8256 15.1568 15.9375 14.875 15.9375H2.125C1.84321 15.9375 1.57296 15.8256 1.3737 15.6263C1.17444 15.427 1.0625 15.1568 1.0625 14.875V2.125C1.0625 1.84321 1.17444 1.57296 1.3737 1.3737C1.57296 1.17444 1.84321 1.0625 2.125 1.0625H14.875ZM2.125 0C1.56141 0 1.02091 0.223883 0.622398 0.622398C0.223883 1.02091 0 1.56141 0 2.125L0 14.875C0 15.4386 0.223883 15.9791 0.622398 16.3776C1.02091 16.7761 1.56141 17 2.125 17H14.875C15.4386 17 15.9791 16.7761 16.3776 16.3776C16.7761 15.9791 17 15.4386 17 14.875V2.125C17 1.56141 16.7761 1.02091 16.3776 0.622398C15.9791 0.223883 15.4386 0 14.875 0L2.125 0Z" fill="white"/>
<path d="M10.843 13.2345C10.9363 13.1925 11.0156 13.1245 11.0712 13.0385C11.1268 12.9526 11.1564 12.8524 11.1564 12.75V4.25002C11.1564 4.14762 11.1269 4.04739 11.0713 3.9614C11.0157 3.8754 10.9364 3.80732 10.843 3.76533C10.7496 3.72335 10.646 3.70925 10.5448 3.72474C10.4436 3.74023 10.349 3.78465 10.2724 3.85265L5.49116 8.10265C5.43498 8.15249 5.39002 8.21368 5.35922 8.28218C5.32842 8.35067 5.3125 8.42492 5.3125 8.50002C5.3125 8.57512 5.32842 8.64937 5.35922 8.71786C5.39002 8.78636 5.43498 8.84755 5.49116 8.89739L10.2724 13.1474C10.349 13.2154 10.4436 13.2597 10.5448 13.2752C10.6461 13.2907 10.7496 13.2765 10.843 13.2345Z" fill="white"/>
</g>
<defs>
<clipPath id="clip0_637_5086">
<rect width="17" height="17" fill="white"/>
</clipPath>
</defs>
</svg>
