<svg width="17" height="17" viewBox="0 0 17 17" fill="none" xmlns="http://www.w3.org/2000/svg">
<g clip-path="url(#clip0_637_5083)">
<path d="M14.875 15.9375C15.1568 15.9375 15.427 15.8256 15.6263 15.6263C15.8256 15.427 15.9375 15.1568 15.9375 14.875V2.125C15.9375 1.84321 15.8256 1.57296 15.6263 1.3737C15.427 1.17444 15.1568 1.0625 14.875 1.0625H2.125C1.84321 1.0625 1.57296 1.17444 1.3737 1.3737C1.17444 1.57296 1.0625 1.84321 1.0625 2.125V14.875C1.0625 15.1568 1.17444 15.427 1.3737 15.6263C1.57296 15.8256 1.84321 15.9375 2.125 15.9375H14.875ZM2.125 17C1.56141 17 1.02091 16.7761 0.622398 16.3776C0.223883 15.9791 0 15.4386 0 14.875L0 2.125C0 1.56141 0.223883 1.02091 0.622398 0.622398C1.02091 0.223885 1.56141 0 2.125 0H14.875C15.4386 0 15.9791 0.223885 16.3776 0.622398C16.7761 1.02091 17 1.56141 17 2.125V14.875C17 15.4386 16.7761 15.9791 16.3776 16.3776C15.9791 16.7761 15.4386 17 14.875 17H2.125Z" fill="white"/>
<path d="M6.15719 3.76548C6.06382 3.80745 5.98456 3.87551 5.92895 3.96146C5.87335 4.04742 5.84376 4.14761 5.84375 4.24998V12.75C5.84372 12.8524 5.87329 12.9526 5.9289 13.0386C5.98451 13.1246 6.06379 13.1927 6.15719 13.2347C6.25059 13.2767 6.35414 13.2907 6.45536 13.2753C6.55659 13.2598 6.65118 13.2154 6.72775 13.1474L11.509 8.89735C11.5652 8.84751 11.6101 8.78632 11.6409 8.71782C11.6717 8.64933 11.6877 8.57508 11.6877 8.49998C11.6877 8.42488 11.6717 8.35063 11.6409 8.28214C11.6101 8.21364 11.5652 8.15245 11.509 8.10261L6.72775 3.8526C6.65116 3.78464 6.55656 3.74026 6.45533 3.7248C6.35411 3.70934 6.25057 3.72347 6.15719 3.76548Z" fill="white"/>
</g>
<defs>
<clipPath id="clip0_637_5083">
<rect width="17" height="17" fill="white" transform="matrix(1 0 0 -1 0 17)"/>
</clipPath>
</defs>
</svg>
