<svg width="25" height="24" viewBox="0 0 25 24" fill="none" xmlns="http://www.w3.org/2000/svg">
<path fill-rule="evenodd" clip-rule="evenodd" d="M21.274 8.09997C22.884 6.48397 22.815 4.36197 21.613 3.06197C21.3105 2.73491 20.9452 2.47228 20.5388 2.28979C20.1324 2.10731 19.6934 2.00873 19.248 1.99997C18.299 1.97797 17.317 2.33997 16.41 3.09897C16.3867 3.11827 16.3644 3.13862 16.343 3.15997L3.374 16.181C2.81368 16.7438 2.49937 17.5058 2.5 18.3V19.993C2.5 21.094 3.392 22 4.504 22H6.183C6.57789 21.9999 6.96887 21.9218 7.33353 21.7703C7.69819 21.6188 8.02934 21.3968 8.308 21.117L21.274 8.09997ZM17.707 5.79297C17.6148 5.69746 17.5044 5.62128 17.3824 5.56887C17.2604 5.51646 17.1292 5.48887 16.9964 5.48772C16.8636 5.48656 16.7319 5.51187 16.609 5.56215C16.4862 5.61243 16.3745 5.68668 16.2806 5.78057C16.1867 5.87447 16.1125 5.98612 16.0622 6.10901C16.0119 6.23191 15.9866 6.36359 15.9878 6.49637C15.9889 6.62915 16.0165 6.76037 16.0689 6.88237C16.1213 7.00438 16.1975 7.11472 16.293 7.20697L17.293 8.20697C17.3852 8.30248 17.4956 8.37866 17.6176 8.43107C17.7396 8.48348 17.8708 8.51107 18.0036 8.51222C18.1364 8.51337 18.2681 8.48807 18.391 8.43779C18.5139 8.38751 18.6255 8.31326 18.7194 8.21936C18.8133 8.12547 18.8875 8.01382 18.9378 7.89092C18.9881 7.76803 19.0134 7.63635 19.0123 7.50357C19.0111 7.37079 18.9835 7.23957 18.9311 7.11756C18.8787 6.99556 18.8025 6.88522 18.707 6.79297L17.707 5.79297Z" fill="white" fill-opacity="0.5"/>
</svg>
