<svg width="19" height="19" viewBox="0 0 19 19" fill="none" xmlns="http://www.w3.org/2000/svg">
<path d="M13.0625 9.5C13.0625 10.4448 12.6872 11.351 12.0191 12.0191C11.351 12.6872 10.4448 13.0625 9.5 13.0625C8.55517 13.0625 7.64903 12.6872 6.98093 12.0191C6.31283 11.351 5.9375 10.4448 5.9375 9.5C5.9375 8.55517 6.31283 7.64903 6.98093 6.98093C7.64903 6.31283 8.55517 5.9375 9.5 5.9375C10.4448 5.9375 11.351 6.31283 12.0191 6.98093C12.6872 7.64903 13.0625 8.55517 13.0625 9.5Z" fill="white"/>
<path d="M16.625 16.625V5.34375L11.2812 0H4.75C4.12011 0 3.51602 0.250223 3.07062 0.695621C2.62522 1.14102 2.375 1.74511 2.375 2.375V16.625C2.375 17.2549 2.62522 17.859 3.07062 18.3044C3.51602 18.7498 4.12011 19 4.75 19H14.25C14.8799 19 15.484 18.7498 15.9294 18.3044C16.3748 17.859 16.625 17.2549 16.625 16.625ZM11.2812 3.5625C11.2813 4.03492 11.4689 4.48799 11.803 4.82203C12.137 5.15608 12.5901 5.34375 13.0625 5.34375H15.4375V16.3341C15.4375 16.3341 14.25 14.25 9.5 14.25C4.75 14.25 3.5625 16.3341 3.5625 16.3341V2.375C3.5625 2.06006 3.68761 1.75801 3.91031 1.53531C4.13301 1.31261 4.43506 1.1875 4.75 1.1875H11.2812V3.5625Z" fill="#FEFEFE"/>
</svg>
