<svg width="26" height="26" viewBox="0 0 26 26" fill="none" xmlns="http://www.w3.org/2000/svg">
<g clip-path="url(#clip0_634_4893)">
<path d="M19.0807 16.8092C20.6542 14.662 21.359 12 21.054 9.35553C20.749 6.7111 19.4568 4.27934 17.4359 2.54675C15.4149 0.81416 12.8143 -0.0914809 10.1544 0.011013C7.49437 0.113507 4.97117 1.21658 3.08955 3.09954C1.20794 4.9825 0.106676 7.50649 0.00608577 10.1665C-0.0945047 12.8266 0.812997 15.4265 2.54703 17.4462C4.28107 19.4659 6.71375 20.7564 9.3584 21.0595C12.003 21.3626 14.6646 20.6559 16.8106 19.0809H16.809C16.8567 19.1459 16.9097 19.2082 16.9682 19.2678L23.2245 25.524C23.5292 25.829 23.9425 26.0003 24.3736 26.0005C24.8047 26.0006 25.2181 25.8296 25.5231 25.5249C25.828 25.2201 25.9994 24.8068 25.9995 24.3757C25.9997 23.9447 25.8286 23.5312 25.5239 23.2263L19.2676 16.97C19.2096 16.9112 19.1471 16.8585 19.0807 16.8092ZM19.5 10.5627C19.5 11.7364 19.2688 12.8985 18.8197 13.9829C18.3705 15.0672 17.7122 16.0525 16.8823 16.8824C16.0523 17.7124 15.0671 18.3707 13.9827 18.8198C12.8984 19.269 11.7362 19.5002 10.5625 19.5002C9.38881 19.5002 8.22661 19.269 7.14226 18.8198C6.05791 18.3707 5.07265 17.7124 4.24273 16.8824C3.4128 16.0525 2.75447 15.0672 2.30532 13.9829C1.85617 12.8985 1.62499 11.7364 1.62499 10.5627C1.62499 8.19229 2.56662 5.919 4.24273 4.2429C5.91883 2.56679 8.19212 1.62516 10.5625 1.62516C12.9329 1.62516 15.2062 2.56679 16.8823 4.2429C18.5584 5.919 19.5 8.19229 19.5 10.5627Z" fill="#787878"/>
</g>
<defs>
<clipPath id="clip0_634_4893">
<rect width="26" height="26" fill="white"/>
</clipPath>
</defs>
</svg>
