<svg width="18" height="19" viewBox="0 0 18 19" fill="none" xmlns="http://www.w3.org/2000/svg">
<path d="M17.2883 17.5694C16.0165 15.1455 14.0565 13.4074 11.7691 12.5834C12.9006 11.8409 13.7796 10.7095 14.2713 9.36295C14.763 8.0164 14.8401 6.52915 14.4908 5.1296C14.1415 3.73005 13.3851 2.4956 12.3378 1.6158C11.2905 0.736006 10.0102 0.259521 8.69345 0.259521C7.37672 0.259521 6.09639 0.736006 5.04908 1.6158C4.00178 2.4956 3.2454 3.73005 2.89612 5.1296C2.54683 6.52915 2.62395 8.0164 3.11562 9.36295C3.6073 10.7095 4.48634 11.8409 5.61777 12.5834C3.33042 13.4064 1.37043 15.1445 0.0985725 17.5694C0.0519311 17.6533 0.0209942 17.7466 0.00758706 17.8438C-0.00582004 17.941 -0.00142575 18.0402 0.0205107 18.1356C0.0424471 18.2309 0.0814814 18.3204 0.13531 18.3988C0.189139 18.4773 0.256672 18.543 0.333925 18.5922C0.411178 18.6414 0.496586 18.673 0.58511 18.6852C0.673634 18.6975 0.76348 18.69 0.849348 18.6633C0.935216 18.6366 1.01537 18.5913 1.08507 18.5299C1.15477 18.4685 1.21262 18.3923 1.25519 18.3059C2.82852 15.3084 5.60942 13.5188 8.69345 13.5188C11.7775 13.5188 14.5584 15.3084 16.1317 18.3059C16.1743 18.3923 16.2321 18.4685 16.3018 18.5299C16.3715 18.5913 16.4517 18.6366 16.5376 18.6633C16.6234 18.69 16.7133 18.6975 16.8018 18.6852C16.8903 18.673 16.9757 18.6414 17.053 18.5922C17.1302 18.543 17.1978 18.4773 17.2516 18.3988C17.3054 18.3204 17.3445 18.2309 17.3664 18.1356C17.3883 18.0402 17.3927 17.941 17.3793 17.8438C17.3659 17.7466 17.335 17.6533 17.2883 17.5694ZM4.01688 6.89039C4.01688 5.87075 4.29115 4.87401 4.80502 4.02621C5.31889 3.17841 6.04927 2.51763 6.9038 2.12743C7.75834 1.73723 8.69864 1.63513 9.60581 1.83406C10.513 2.03298 11.3463 2.52398 12.0003 3.24498C12.6543 3.96597 13.0997 4.88458 13.2802 5.88462C13.4606 6.88467 13.368 7.92125 13.014 8.86328C12.6601 9.8053 12.0607 10.6105 11.2916 11.1769C10.5226 11.7434 9.61839 12.0458 8.69345 12.0458C7.45356 12.0443 6.26482 11.5007 5.38808 10.5342C4.51134 9.56769 4.0182 8.25724 4.01688 6.89039Z" fill="#A4A4A4"/>
</svg>
